<?xml version="1.0" encoding="utf-8"?>
<!-- Generator: Adobe Illustrator 16.0.0, SVG Export Plug-In . SVG Version: 6.00 Build 0)  -->
<!DOCTYPE svg PUBLIC "-//W3C//DTD SVG 1.0//EN" "http://www.w3.org/TR/2001/REC-SVG-20010904/DTD/svg10.dtd">
<svg version="1.0" id="Layer_1" xmlns="http://www.w3.org/2000/svg" xmlns:xlink="http://www.w3.org/1999/xlink" x="0px" y="0px"
	 width="116.175px" height="124.702px" viewBox="0 0 116.175 124.702" enable-background="new 0 0 116.175 124.702"
	 xml:space="preserve">
<g>
	<g>
		<path fill="#67BBE5" d="M58.088,0C26.283,0,0.5,25.783,0.5,57.587c0,23.723,14.348,44.088,34.835,52.91l-6.354,13.205
			c11.885-1.515,19.672-5.114,24.691-8.712c1.459,0.111,2.929,0.186,4.416,0.186c31.805,0,57.588-25.783,57.588-57.588
			C115.676,25.783,89.893,0,58.088,0z"/>
	</g>
	<g id="_x37_nr38R.tif">
		<g>
			<g>
				<path d="M56.805,30.796c1.444,0,2.888,0,4.331,0c0.167,0.03,0.334,0.067,0.502,0.09c1.89,0.257,3.795,0.432,5.665,0.788
					c2.143,0.408,4.2,1.114,6.056,2.315c1.48,0.958,2.347,2.197,2.264,4.076c-0.096,2.175-0.027,4.358-0.02,6.537
					c0.003,0.957-0.274,1.818-0.985,2.452c-0.649,0.578-1.339,1.149-2.101,1.557c-3.225,1.727-6.759,2.307-10.347,2.595
					c-2.96,0.238-5.918,0.151-8.864-0.265c-2.441-0.345-4.842-0.864-7.082-1.916c-1.788-0.839-3.506-1.805-3.918-4.014
					c0-2.636,0-5.272,0-7.909c0.176-0.476,0.288-0.99,0.541-1.421c0.588-1.007,1.535-1.64,2.54-2.171
					c2.975-1.571,6.21-2.175,9.511-2.521C55.533,30.923,56.169,30.861,56.805,30.796z"/>
				<path d="M42.306,58.853c0-2.636,0-5.272,0-7.909c0.179-0.534,0.357-1.068,0.573-1.713c0.988,1.208,2.14,1.915,3.391,2.479
					c3.042,1.373,6.28,1.894,9.569,2.151c2.364,0.185,4.73,0.155,7.096-0.074c2.438-0.237,4.842-0.64,7.161-1.443
					c1.575-0.545,3.088-1.228,4.32-2.398c0.198-0.188,0.377-0.395,0.57-0.598c0.465,0.598,0.612,1.245,0.612,1.934
					c0.003,2.4-0.002,4.8,0.003,7.2c0.002,0.958-0.336,1.767-0.995,2.457c-0.85,0.89-1.887,1.496-2.998,1.983
					c-3.559,1.559-7.332,2.116-11.17,2.206c-2.141,0.05-4.295-0.078-6.43-0.271c-2.675-0.242-5.292-0.831-7.742-1.97
					C44.46,62.045,42.72,61.085,42.306,58.853z"/>
				<path d="M42.306,72.692c0-2.636,0-5.272,0-7.909c0.161-0.553,0.215-1.155,0.685-1.598c0.897,1.12,2.064,1.81,3.318,2.373
					c3.059,1.375,6.314,1.888,9.62,2.142c2.302,0.177,4.604,0.147,6.907-0.073c2.439-0.233,4.843-0.627,7.166-1.423
					c1.608-0.551,3.15-1.236,4.411-2.423c0.199-0.188,0.378-0.397,0.572-0.604c0.452,0.582,0.611,1.212,0.612,1.884
					c0.005,2.432,0.002,4.863,0.003,7.294c0,0.922-0.33,1.706-0.959,2.377c-0.853,0.91-1.903,1.525-3.028,2.019
					c-3.574,1.567-7.364,2.078-11.217,2.229c-2.353,0.092-4.7-0.024-7.036-0.355c-2.427-0.344-4.813-0.85-7.046-1.886
					C44.491,75.893,42.735,74.938,42.306,72.692z"/>
			</g>
		</g>
	</g>
</g>
</svg>
