<?xml version="1.0" encoding="utf-8"?>
<!-- Generator: Adobe Illustrator 16.0.0, SVG Export Plug-In . SVG Version: 6.00 Build 0)  -->
<!DOCTYPE svg PUBLIC "-//W3C//DTD SVG 1.0//EN" "http://www.w3.org/TR/2001/REC-SVG-20010904/DTD/svg10.dtd">
<svg version="1.0" id="Layer_1" xmlns="http://www.w3.org/2000/svg" xmlns:xlink="http://www.w3.org/1999/xlink" x="0px" y="0px"
	 width="116.175px" height="124.702px" viewBox="0 0 116.175 124.702" enable-background="new 0 0 116.175 124.702"
	 xml:space="preserve">
<g>
	<g>
		<path fill="#67BBE5" d="M58.588,1C26.783,1,1,26.783,1,58.587c0,23.722,14.348,44.087,34.835,52.91l-6.355,13.205
			c11.885-1.516,19.673-5.114,24.691-8.713c1.459,0.111,2.929,0.186,4.417,0.186c31.804,0,57.587-25.783,57.587-57.587
			C116.175,26.783,90.392,1,58.588,1z"/>
	</g>
	<g>
		<rect x="47.44" y="88.13" width="22.296" height="1.271"/>
		<polygon points="68.751,88.13 48.424,88.13 49.835,78.674 67.34,78.674 		"/>
		<g>
			<path d="M92.629,35.797H24.546c-0.99,0-1.792,0.803-1.792,1.793v39.292c0,0.989,0.803,1.792,1.792,1.792h68.083
				c0.989,0,1.792-0.803,1.792-1.792V37.59C94.421,36.6,93.619,35.797,92.629,35.797z M89.409,74.338H27.3V39.044h62.108V74.338z"/>
		</g>
		<rect x="27.3" y="69.66" width="62.108" height="4.678"/>
		<circle fill="#CECDCD" cx="59.385" cy="76.03" r="2.644"/>
	</g>
</g>
</svg>
