<?xml version="1.0" encoding="utf-8"?>
<!-- Generator: Adobe Illustrator 16.0.0, SVG Export Plug-In . SVG Version: 6.00 Build 0)  -->
<!DOCTYPE svg PUBLIC "-//W3C//DTD SVG 1.0//EN" "http://www.w3.org/TR/2001/REC-SVG-20010904/DTD/svg10.dtd">
<svg version="1.0" id="Layer_1" xmlns="http://www.w3.org/2000/svg" xmlns:xlink="http://www.w3.org/1999/xlink" x="0px" y="0px"
	 width="116.175px" height="124.702px" viewBox="0 0 116.175 124.702" enable-background="new 0 0 116.175 124.702"
	 xml:space="preserve">
<g>
	<path fill="#67BBE5" d="M58.088,0.5C26.283,0.5,0.5,26.283,0.5,58.088c0,23.722,14.348,44.087,34.835,52.91l-6.355,13.205
		c11.886-1.516,19.673-5.114,24.691-8.712c1.46,0.111,2.929,0.186,4.417,0.186c31.805,0,57.588-25.783,57.588-57.588
		S89.893,0.5,58.088,0.5z"/>
	<g>
		<g>
			<g>
				<path fill="#F7BE16" d="M68.612,65.6l-0.005,0.003c1.953-2.215,3.141-5.121,3.141-8.306c0-6.939-5.626-12.565-12.565-12.565
					s-12.564,5.625-12.564,12.565c0,3.185,1.188,6.091,3.141,8.305L49.753,65.6c0,0,0.008,0.008,0.021,0.02
					c0.14,0.158,0.282,0.312,0.429,0.461c0.813,0.936,2.441,3.141,2.441,5.789l0.004-0.008c0.087,3.536,2.979,6.376,6.535,6.376
					s6.448-2.84,6.536-6.376l0.004,0.008c0-2.649,1.631-4.856,2.442-5.791c0.146-0.149,0.288-0.302,0.426-0.459
					C68.604,65.608,68.612,65.6,68.612,65.6z"/>
			</g>
			<g>
				<g>
					<polygon points="63.42,82.94 54.896,82.94 53.428,80.588 64.89,80.588 					"/>
				</g>
			</g>
			<g>
				<rect x="52.19" y="75.299" fill="#FFFFFF" width="13.937" height="1.323"/>
			</g>
			<g>
				<rect x="52.19" y="77.943" fill="#FFFFFF" width="13.937" height="1.323"/>
			</g>
			<g>
				<g>
					<rect x="51.676" y="76.621" width="14.965" height="1.323"/>
				</g>
			</g>
			<g>
				<g>
					<rect x="51.676" y="79.266" width="14.965" height="1.322"/>
				</g>
			</g>
			<g>
				<g>
					<rect x="51.271" y="72.948" width="15.773" height="2.351"/>
				</g>
			</g>
			<g>
				<path d="M65.015,59.415l-0.04,0.194c-0.197,0.414-0.619,0.7-1.107,0.7c-0.51,0-0.971-0.322-1.148-0.802l-0.033-0.092h-0.76
					l-0.034,0.092c-0.177,0.479-0.638,0.802-1.147,0.802s-0.971-0.322-1.147-0.802l-0.034-0.092h-0.76l-0.033,0.092
					c-0.177,0.479-0.639,0.802-1.148,0.802s-0.971-0.322-1.147-0.802l-0.034-0.092h-0.759l-0.034,0.092
					c-0.178,0.479-0.639,0.802-1.148,0.802c-0.487,0-0.91-0.286-1.106-0.7l-0.04-0.194H52.42c0.025,0.161,0.067,0.316,0.127,0.463
					l2.793,13.478l0.863-0.179l-2.518-12.149c0.25,0.105,0.524,0.163,0.813,0.163c0.604,0,1.17-0.263,1.562-0.696
					c0.393,0.434,0.957,0.696,1.562,0.696s1.169-0.263,1.562-0.696c0.393,0.434,0.957,0.696,1.562,0.696s1.169-0.263,1.562-0.696
					c0.393,0.434,0.957,0.696,1.562,0.696c0.288,0,0.563-0.058,0.813-0.163l-2.518,12.149l0.863,0.179l2.793-13.478
					c0.061-0.146,0.102-0.302,0.127-0.463H65.015z"/>
			</g>
		</g>
		<g>
			<path fill="#F7BE16" d="M59.183,40.714c-0.405,0-0.734-0.329-0.734-0.734v-9.308c0-0.406,0.329-0.735,0.734-0.735
				c0.406,0,0.735,0.329,0.735,0.735v9.308C59.918,40.386,59.589,40.714,59.183,40.714z"/>
		</g>
		<g>
			<g>
				<g>
					<path fill="#F7BE16" d="M46.887,45.808c-0.188,0-0.376-0.072-0.52-0.215l-6.582-6.582c-0.287-0.287-0.287-0.752,0-1.039
						s0.752-0.287,1.039,0l6.582,6.582c0.287,0.287,0.287,0.752,0,1.039C47.263,45.736,47.074,45.808,46.887,45.808z"/>
				</g>
			</g>
			<g>
				<path fill="#F7BE16" d="M78.061,76.982c-0.188,0-0.376-0.072-0.52-0.215l-6.581-6.581c-0.287-0.287-0.287-0.752,0-1.039
					c0.287-0.287,0.752-0.287,1.039,0l6.581,6.581c0.287,0.287,0.287,0.752,0,1.039C78.437,76.91,78.249,76.982,78.061,76.982z"/>
			</g>
		</g>
		<g>
			<g>
				<path fill="#F7BE16" d="M71.479,45.808c-0.188,0-0.376-0.072-0.52-0.215c-0.287-0.287-0.287-0.752,0-1.039l6.582-6.582
					c0.287-0.287,0.752-0.287,1.039,0s0.287,0.752,0,1.039l-6.582,6.582C71.854,45.736,71.667,45.808,71.479,45.808z"/>
			</g>
			<g>
				<path fill="#F7BE16" d="M40.305,76.982c-0.188,0-0.376-0.072-0.52-0.215c-0.287-0.287-0.287-0.752,0-1.039l6.581-6.581
					c0.287-0.287,0.752-0.287,1.039,0c0.287,0.287,0.287,0.752,0,1.039l-6.581,6.581C40.681,76.91,40.492,76.982,40.305,76.982z"/>
			</g>
		</g>
		<g>
			<g>
				<path fill="#F7BE16" d="M85.602,58.104h-9.308c-0.406,0-0.734-0.329-0.734-0.735s0.328-0.735,0.734-0.735h9.308
					c0.406,0,0.734,0.329,0.734,0.735S86.008,58.104,85.602,58.104z"/>
			</g>
			<g>
				<path fill="#F7BE16" d="M41.514,58.104h-9.307c-0.406,0-0.735-0.329-0.735-0.735s0.329-0.735,0.735-0.735h9.307
					c0.406,0,0.735,0.329,0.735,0.735S41.92,58.104,41.514,58.104z"/>
			</g>
		</g>
		<g>
			<g>
				<g>
					<path fill="#F7BE16" d="M74.971,51.45c-0.289,0-0.563-0.171-0.68-0.454c-0.155-0.375,0.023-0.805,0.397-0.96l3.85-1.594
						c0.375-0.156,0.805,0.023,0.96,0.397c0.155,0.375-0.022,0.805-0.397,0.96l-3.85,1.594C75.159,51.432,75.064,51.45,74.971,51.45
						z"/>
				</g>
			</g>
			<g>
				<path fill="#F7BE16" d="M38.989,66.354c-0.288,0-0.562-0.171-0.679-0.454c-0.155-0.375,0.022-0.805,0.397-0.96l3.849-1.594
					c0.376-0.156,0.805,0.023,0.96,0.397c0.155,0.375-0.022,0.805-0.397,0.96l-3.849,1.594
					C39.179,66.335,39.083,66.354,38.989,66.354z"/>
			</g>
		</g>
		<g>
			<g>
				<path fill="#F7BE16" d="M78.818,66.354c-0.094,0-0.188-0.018-0.28-0.056l-3.85-1.594c-0.374-0.155-0.553-0.585-0.397-0.96
					s0.585-0.553,0.96-0.397l3.85,1.594c0.374,0.155,0.553,0.585,0.397,0.96C79.381,66.183,79.107,66.354,78.818,66.354z"/>
			</g>
			<g>
				<path fill="#F7BE16" d="M42.838,51.45c-0.094,0-0.189-0.018-0.281-0.056l-3.849-1.594c-0.375-0.155-0.553-0.585-0.397-0.96
					s0.585-0.553,0.96-0.397l3.849,1.594c0.375,0.155,0.553,0.585,0.397,0.96C43.399,51.279,43.126,51.45,42.838,51.45z"/>
			</g>
		</g>
		<g>
			<g>
				<path fill="#F7BE16" d="M65.559,42.039c-0.094,0-0.189-0.018-0.281-0.056c-0.375-0.155-0.553-0.585-0.397-0.96l1.595-3.849
					c0.155-0.375,0.584-0.553,0.96-0.397c0.375,0.155,0.553,0.585,0.397,0.96l-1.595,3.849
					C66.12,41.868,65.847,42.039,65.559,42.039z"/>
			</g>
		</g>
		<g>
			<g>
				<path fill="#F7BE16" d="M52.25,42.039c-0.289,0-0.563-0.17-0.68-0.454l-1.594-3.849c-0.155-0.375,0.022-0.805,0.397-0.96
					c0.376-0.156,0.805,0.023,0.96,0.398l1.594,3.849c0.155,0.375-0.022,0.805-0.397,0.96C52.438,42.021,52.343,42.039,52.25,42.039
					z"/>
			</g>
		</g>
	</g>
</g>
</svg>
