<?xml version="1.0" encoding="utf-8"?>
<!-- Generator: Adobe Illustrator 16.0.0, SVG Export Plug-In . SVG Version: 6.00 Build 0)  -->
<!DOCTYPE svg PUBLIC "-//W3C//DTD SVG 1.0//EN" "http://www.w3.org/TR/2001/REC-SVG-20010904/DTD/svg10.dtd">
<svg version="1.0" id="Layer_1" xmlns="http://www.w3.org/2000/svg" xmlns:xlink="http://www.w3.org/1999/xlink" x="0px" y="0px"
	 width="116.175px" height="124.702px" viewBox="0 0 116.175 124.702" enable-background="new 0 0 116.175 124.702"
	 xml:space="preserve">
<g>
	<g>
		<g>
			<path fill="#67BBE5" d="M58.088,0.5C26.283,0.5,0.5,26.282,0.5,58.087c0,23.722,14.348,44.087,34.835,52.91l-6.355,13.205
				c11.886-1.516,19.673-5.115,24.691-8.713c1.46,0.111,2.929,0.186,4.417,0.186c31.805,0,57.588-25.783,57.588-57.587
				C115.676,26.282,89.893,0.5,58.088,0.5z"/>
		</g>
	</g>
	<g id="wbEIy8.tif">
		<g>
			<path d="M78.271,53.097c-0.111-0.533-0.184-1.078-0.34-1.597c-0.756-2.504-2.439-4.163-4.813-5.159
				c-1.386-0.583-2.841-0.848-4.346-0.847c-3.157,0.001-6.314,0-9.473,0c-0.125,0-0.25,0-0.396,0c0,5.654,0,11.288,0,16.958
				c1.177,0,2.363,0,3.596,0c0,0.157,0,0.279,0,0.401c0,3.031-0.003,6.062,0.001,9.092c0.002,1.268,0.646,2.186,1.757,2.528
				c0.109,0.034,0.218,0.069,0.327,0.104c1.457,0,2.915,0,4.372,0c0.046-0.021,0.09-0.051,0.139-0.062
				c1.107-0.264,1.854-1.136,1.898-2.274c0.028-0.727,0.007-1.457,0.007-2.185c0.001-2.606,0-5.212,0-7.827
				c0.281-0.068,0.559-0.128,0.832-0.204s0.546-0.157,0.812-0.255c2.758-1.023,4.67-2.843,5.402-5.763
				c0.095-0.374,0.15-0.757,0.225-1.137C78.271,54.28,78.271,53.688,78.271,53.097z"/>
			<path d="M39.493,53.982c0,4.434-0.001,8.868,0.001,13.301c0.001,1.257,0.933,2.313,2.137,2.412
				c0.163,0.014,0.361-0.031,0.496-0.121c2.685-1.774,5.36-3.56,8.042-5.336c0.172-0.114,0.226-0.236,0.226-0.437
				c-0.006-6.556-0.006-13.111,0-19.667c0-0.205-0.063-0.318-0.232-0.431c-2.68-1.778-5.352-3.567-8.034-5.34
				c-0.155-0.103-0.4-0.147-0.585-0.115c-1.259,0.222-2.049,1.185-2.049,2.464C39.493,45.135,39.493,49.559,39.493,53.982z"/>
			<path d="M56.439,45.505c-1.21,0-2.4,0-3.613,0c0,5.644,0,11.276,0,16.937c1.19,0,2.388,0,3.613,0
				C56.439,56.814,56.439,51.174,56.439,45.505z"/>
		</g>
	</g>
</g>
</svg>
