<?xml version="1.0" encoding="utf-8"?>
<!-- Generator: Adobe Illustrator 16.0.0, SVG Export Plug-In . SVG Version: 6.00 Build 0)  -->
<!DOCTYPE svg PUBLIC "-//W3C//DTD SVG 1.0//EN" "http://www.w3.org/TR/2001/REC-SVG-20010904/DTD/svg10.dtd">
<svg version="1.0" id="Layer_1" xmlns="http://www.w3.org/2000/svg" xmlns:xlink="http://www.w3.org/1999/xlink" x="0px" y="0px"
	 width="116.175px" height="124.702px" viewBox="0 0 116.175 124.702" enable-background="new 0 0 116.175 124.702"
	 xml:space="preserve">
<g>
	<path fill="#67BBE5" d="M58.088,0.5C26.283,0.5,0.5,26.283,0.5,58.088c0,23.722,14.348,44.087,34.835,52.91l-6.355,13.205
		c11.885-1.516,19.673-5.114,24.691-8.712c1.459,0.111,2.929,0.186,4.417,0.186c31.805,0,57.588-25.783,57.588-57.588
		S89.893,0.5,58.088,0.5z"/>
	<g>
		<g>
			<path d="M46.774,69.502v18.567h35.848V69.502H46.774z M54.125,86.04h-3.437v-3.438h3.437V86.04z M54.155,80.656h-3.437v-3.438
				h3.437V80.656z M54.185,75.344h-3.437v-3.437h3.437V75.344z M60.259,86.04h-3.437v-3.438h3.437V86.04z M60.289,80.656h-3.438
				v-3.438h3.438V80.656z M60.318,75.344h-3.437v-3.437h3.437V75.344z M66.328,86.04h-3.438v-3.438h3.438V86.04z M66.357,80.656
				H62.92v-3.438h3.437V80.656z M66.387,75.344H62.95v-3.437h3.437V75.344z M72.462,86.04h-3.437v-3.438h3.437V86.04z
				 M72.492,80.656h-3.437v-3.438h3.437V80.656z M72.521,75.344h-3.437v-3.437h3.437V75.344z M78.59,86.04h-3.438v-3.438h3.438
				V86.04z M78.62,80.656h-3.437v-3.438h3.437V80.656z M78.649,75.344h-3.437v-3.437h3.437V75.344z"/>
			<path d="M75.84,61.49v1.708c0,0.832-0.674,1.506-1.506,1.506s-1.506-0.674-1.506-1.506V61.49h-6.625v1.708
				c0,0.832-0.674,1.506-1.506,1.506c-0.832,0-1.505-0.674-1.505-1.506V61.49h-6.625v1.708c0,0.832-0.674,1.506-1.505,1.506
				c-0.832,0-1.506-0.674-1.506-1.506V61.49h-6.782v7.531h35.848V61.49H75.84z"/>
			<path d="M75.461,63.255c0,0.623-0.504,1.127-1.127,1.127l0,0c-0.623,0-1.127-0.505-1.127-1.127v-3.488
				c0-0.623,0.504-1.127,1.127-1.127l0,0c0.623,0,1.127,0.504,1.127,1.127V63.255z"/>
			<path d="M65.825,63.255c0,0.623-0.504,1.127-1.127,1.127l0,0c-0.622,0-1.127-0.505-1.127-1.127v-3.488
				c0-0.623,0.505-1.127,1.127-1.127l0,0c0.623,0,1.127,0.504,1.127,1.127V63.255z"/>
			<path d="M56.189,63.255c0,0.623-0.504,1.127-1.126,1.127l0,0c-0.623,0-1.127-0.505-1.127-1.127v-3.488
				c0-0.623,0.505-1.127,1.127-1.127l0,0c0.622,0,1.126,0.504,1.126,1.127V63.255z"/>
		</g>
		<g>
			<circle fill="none" stroke="#000000" stroke-width="1.9842" stroke-miterlimit="10" cx="49.069" cy="36.712" r="19.957"/>
			<g>
				<g>
					<path d="M51.131,36.803h0.177c-0.136-0.162-0.289-0.308-0.473-0.415V24.036c0-0.332-0.269-0.6-0.6-0.6h-0.587
						c-0.331,0-0.6,0.269-0.6,0.6v12.353c-0.335,0.194-0.605,0.488-0.757,0.849h-8.959c-0.331,0-0.6,0.269-0.6,0.6v0.587
						c0,0.332,0.269,0.6,0.6,0.6h9.2c0.328,0.423,0.834,0.7,1.411,0.7c0.989,0,1.792-0.802,1.792-1.792
						c0-0.102-0.023-0.196-0.04-0.292h-0.562V36.803z"/>
					<path fill="#A71E22" d="M60.448,36.803h-9.139c0.198,0.236,0.331,0.52,0.385,0.836h8.754V36.803z"/>
					<path d="M51.131,36.803v0.836h0.562c-0.054-0.316-0.187-0.6-0.385-0.836H51.131z"/>
				</g>
				<circle fill="#CECDCD" cx="49.959" cy="37.955" r="0.733"/>
			</g>
		</g>
	</g>
</g>
</svg>
