<?xml version="1.0" encoding="utf-8"?>
<!-- Generator: Adobe Illustrator 16.0.0, SVG Export Plug-In . SVG Version: 6.00 Build 0)  -->
<!DOCTYPE svg PUBLIC "-//W3C//DTD SVG 1.0//EN" "http://www.w3.org/TR/2001/REC-SVG-20010904/DTD/svg10.dtd">
<svg version="1.0" id="Layer_1" xmlns="http://www.w3.org/2000/svg" xmlns:xlink="http://www.w3.org/1999/xlink" x="0px" y="0px"
	 width="145.521px" height="286.651px" viewBox="0 0 145.521 286.651" enable-background="new 0 0 145.521 286.651"
	 xml:space="preserve">
<g>
	<path fill="#D12527" d="M123.746,91.105H19.942c-2.972,0-5.553-2.651-5.768-5.943L10.141,23.26C9.313,10.554,17.435,0,28.302,0
		h87.083c10.868,0,18.99,10.554,18.162,23.26l-4.034,61.901C129.299,88.454,126.717,91.105,123.746,91.105z"/>
	<rect x="49.116" y="37.896" fill="#6C6C6C" width="45.55" height="19.633"/>
	<rect x="62.467" y="57.529" fill="#A5A5A5" width="18.848" height="118.527"/>
	<g>
		<path fill="#5E5E5E" d="M145.521,151.635H0v-4.657c0-0.959,0.777-1.737,1.737-1.737h142.047c0.96,0,1.737,0.778,1.737,1.737
			V151.635z"/>
		<g>
			<path fill="#D12527" d="M140.982,143.768v-5.654c0-5.297-4.119-9.631-9.154-9.631H13.693c-5.035,0-9.154,4.334-9.154,9.631v5.654
				c0,0.502,0.048,0.991,0.119,1.473h136.204C140.934,144.759,140.982,144.27,140.982,143.768z"/>
		</g>
	</g>
	<path fill="#231F20" d="M82.891,261.759H60.892c-1.56,0-2.835-1.275-2.835-2.835v-80.033c0-1.56,1.275-2.835,2.835-2.835h21.999
		c1.559,0,2.834,1.275,2.834,2.835v80.033C85.725,260.484,84.449,261.759,82.891,261.759z"/>
	<g>
		<g>
			<path fill="#231F20" d="M117.695,263.923c-0.234-2.771-2.556-4.947-5.387-4.947h-81.94c-2.832,0-5.152,2.177-5.387,4.947h-0.024
				v5.875h5.411h81.94h5.566v-5.875H117.695z"/>
			<polygon fill="#2B2527" points="24.957,263.894 24.957,269.798 30.368,269.798 112.309,269.798 117.875,269.798 117.875,263.894 
							"/>
		</g>
		<g>
			<circle fill="#231F20" cx="25.421" cy="277.993" r="8.658"/>
			<path fill="#363032" d="M25.421,269.335c-0.098,0-0.193,0.012-0.29,0.015v17.285c0.097,0.004,0.192,0.016,0.29,0.016
				c4.782,0,8.658-3.876,8.658-8.658C34.079,273.211,30.203,269.335,25.421,269.335z"/>
			<circle fill="#595A5C" cx="25.421" cy="277.993" r="4.643"/>
			<path fill="#424143" d="M25.131,273.366c-2.428,0.149-4.353,2.161-4.353,4.627s1.924,4.478,4.353,4.627V273.366z"/>
		</g>
		<g>
			<circle fill="#231F20" cx="71.285" cy="277.993" r="8.658"/>
			<path fill="#363032" d="M71.285,269.335c-0.098,0-0.193,0.012-0.29,0.015v17.285c0.097,0.004,0.192,0.016,0.29,0.016
				c4.781,0,8.658-3.876,8.658-8.658C79.943,273.211,76.066,269.335,71.285,269.335z"/>
			<circle fill="#595A5C" cx="71.285" cy="277.993" r="4.643"/>
			<path fill="#424143" d="M70.995,273.366c-2.428,0.149-4.353,2.161-4.353,4.627s1.924,4.478,4.353,4.627V273.366z"/>
		</g>
		<g>
			<circle fill="#231F20" cx="118.268" cy="277.993" r="8.658"/>
			<path fill="#363032" d="M118.267,269.335c-0.097,0-0.192,0.012-0.29,0.015v17.285c0.098,0.004,0.193,0.016,0.29,0.016
				c4.782,0,8.659-3.876,8.659-8.658C126.926,273.211,123.049,269.335,118.267,269.335z"/>
			<circle fill="#595A5C" cx="118.268" cy="277.993" r="4.643"/>
			<path fill="#424143" d="M117.977,273.366c-2.428,0.149-4.352,2.161-4.352,4.627s1.924,4.478,4.352,4.627V273.366z"/>
		</g>
	</g>
</g>
</svg>
