<?xml version="1.0" encoding="utf-8"?>
<!-- Generator: Adobe Illustrator 16.0.0, SVG Export Plug-In . SVG Version: 6.00 Build 0)  -->
<!DOCTYPE svg PUBLIC "-//W3C//DTD SVG 1.0//EN" "http://www.w3.org/TR/2001/REC-SVG-20010904/DTD/svg10.dtd">
<svg version="1.0" id="Layer_1" xmlns="http://www.w3.org/2000/svg" xmlns:xlink="http://www.w3.org/1999/xlink" x="0px" y="0px"
	 width="136.864px" height="428.411px" viewBox="0 0 136.864 428.411" enable-background="new 0 0 136.864 428.411"
	 xml:space="preserve">
<g>
	<path fill="#3C2415" d="M110.912,98.058c0,23.6-19.131,42.732-42.732,42.732l0,0c-23.6,0-42.732-19.133-42.732-42.732V43.232
		C25.447,19.63,44.58,0.5,68.18,0.5l0,0c23.601,0,42.732,19.13,42.732,42.732V98.058z"/>
	<line fill="none" stroke="#000000" stroke-miterlimit="10" x1="12.68" y1="291.686" x2="12.68" y2="291.686"/>
	<path fill="#FFDAA2" d="M40.996,72.088c0,4.106-3.328,7.436-7.436,7.436l0,0c-4.107,0-7.439-3.329-7.439-7.436V65.93
		c0-4.106,3.332-7.436,7.439-7.436l0,0c4.107,0,7.436,3.329,7.436,7.436V72.088z"/>
	<path fill="#FED09E" d="M38.311,70.973c0,2.623-2.127,4.752-4.75,4.752l0,0c-2.623,0-4.752-2.129-4.752-4.752v-3.931
		c0-2.624,2.129-4.749,4.752-4.749l0,0c2.623,0,4.75,2.125,4.75,4.749V70.973z"/>
	<path fill="#E6BE91" d="M110.738,72.088c0,4.106-3.328,7.436-7.436,7.436l0,0c-4.107,0-7.439-3.329-7.439-7.436V65.93
		c0-4.106,3.332-7.436,7.439-7.436l0,0c4.107,0,7.436,3.329,7.436,7.436V72.088z"/>
	<path fill="#DBB58B" d="M108.052,70.976c0,2.62-2.127,4.749-4.75,4.749l0,0c-2.623,0-4.752-2.129-4.752-4.749v-3.934
		c0-2.624,2.129-4.749,4.752-4.749l0,0c2.623,0,4.75,2.125,4.75,4.749V70.976z"/>
	<path fill="#E47A74" d="M116.101,247.334v-55.932l-0.029-9.499l0.002-18.343c0-0.391,0.318-0.705,0.705-0.705
		c0.391,0,0.705,0.314,0.705,0.705v2.493h19.379v-0.73l-0.002-2.417v-15.049c0-19.592-15.883-35.475-35.477-35.475h-33.3v147.157
		h35.814C110.638,259.539,116.101,254.073,116.101,247.334z"/>
	<path fill="#383839" d="M106.463,290.829H29.294c-5.665,0-10.257-4.593-10.257-10.257v-18.245c0-5.664,4.592-10.257,10.257-10.257
		h77.169c5.665,0,10.257,4.593,10.257,10.257v18.245C116.72,286.236,112.128,290.829,106.463,290.829z"/>
	<g>
		<path fill="#1A1A1A" d="M136.861,162.906v-15.049c0-19.592-15.883-35.475-35.477-35.475H35.479
			c-19.592,0-35.475,15.883-35.475,35.475v16.661L0,165.323v0.731h19.359v-2.494c0-0.391,0.316-0.705,0.705-0.705
			c0.391,0,0.707,0.314,0.707,0.705v18.343l-0.014,9.499l-0.002,55.932c0,6.739,5.463,12.205,12.203,12.205h70.939
			c6.74,0,12.203-5.466,12.203-12.205v-55.932l-0.027-9.499v-18.343c0-0.391,0.318-0.705,0.705-0.705
			c0.391,0,0.705,0.314,0.705,0.705v2.494h19.379v-0.731L136.861,162.906z"/>
	</g>
	<path fill="#383839" d="M136.861,148.149c0-19.592-15.883-35.475-35.477-35.475H68.082v147.156h35.816
		c6.74,0,12.203-5.465,12.203-12.205v-55.932l-0.027-9.498v-18.344c0-0.391,0.318-0.705,0.705-0.705
		c0.391,0,0.705,0.314,0.705,0.705v2.494h19.379v-0.73l-0.002-2.418V148.149z"/>
	<rect x="117.484" y="165.896" fill="#383839" width="19.379" height="7.429"/>
	<polygon fill="#F1F2F2" points="54.649,112.38 48.168,122.767 59.44,183.852 76.724,183.852 87.996,122.767 81.515,112.38 	"/>
	<path fill="#FFDAA2" d="M68.432,8.103c-20.039,0-36.281,16.245-36.281,36.282v24.188c0,15.389,9.586,28.531,23.111,33.806v14.57
		c0,5.682,3.604,10.508,8.648,12.355l4.171,17.223l4.323-17.023c5.33-1.686,9.195-6.668,9.195-12.555v-14.57
		c13.523-5.271,23.111-18.415,23.111-33.806V44.385C104.71,24.348,88.468,8.103,68.432,8.103z"/>
	<path fill="#3C2415" d="M56.672,58.494c0,1.779-1.445,3.223-3.225,3.223c-1.783,0-3.227-1.443-3.227-3.223
		c0-1.783,1.443-3.225,3.227-3.225C55.227,55.27,56.672,56.711,56.672,58.494z"/>
	<path fill="#FED09E" d="M87.857,13.746H68.081v107.855v8.5v16.426l4.323-17.021c0.455-0.145,0.896-0.316,1.328-0.508
		c0.096-0.043,0.188-0.092,0.283-0.135c0.336-0.158,0.664-0.326,0.982-0.512c0.107-0.061,0.209-0.125,0.314-0.189
		c0.307-0.189,0.605-0.389,0.895-0.602c0.09-0.066,0.178-0.131,0.266-0.199c0.313-0.242,0.613-0.498,0.904-0.768
		c0.049-0.045,0.1-0.088,0.148-0.135c1.396-1.336,2.494-2.975,3.197-4.813c0.006-0.016,0.014-0.029,0.02-0.045h-0.004
		c0.549-1.447,0.863-3.012,0.863-4.652v-14.57c13.523-5.271,23.111-18.415,23.111-33.806V44.385
		C104.712,31.494,97.986,20.181,87.857,13.746z"/>
	<path fill="#3C2415" d="M86.638,58.494c0,1.779-1.445,3.223-3.225,3.223c-1.783,0-3.225-1.443-3.225-3.223
		c0-1.783,1.441-3.225,3.225-3.225C85.193,55.27,86.638,56.711,86.638,58.494z"/>
	<polygon fill="#E6BE91" points="68.08,61.921 68.08,79.457 72.406,76.724 	"/>
	<polygon fill="#ED1C24" points="74.564,88.2 68.08,90.666 61.594,88.2 	"/>
	<path fill="#3C2415" d="M59.32,50.28c0,0.473-0.385,0.856-0.857,0.856h-10.48c-0.473,0-0.857-0.384-0.857-0.856l0,0
		c0-0.472,0.385-0.856,0.857-0.856h10.48C58.936,49.424,59.32,49.809,59.32,50.28L59.32,50.28z"/>
	<path fill="#3C2415" d="M89.353,50.28c0,0.473-0.385,0.856-0.855,0.856H78.015c-0.473,0-0.857-0.384-0.857-0.856l0,0
		c0-0.472,0.385-0.856,0.857-0.856h10.482C88.968,49.424,89.353,49.809,89.353,50.28L89.353,50.28z"/>
	<path fill="#3C2415" d="M92.367,28.518c0,0-7.256,14.715-33.056,14.715c0,0,18.343-5.241,23.382-13.908
		c0,0-19.351,11.69-35.476,13.706c0,0-14.414-2.136-13.656,32.694c0,0,1.16-17.98-3.678-17.576l0.807-29.026L54.473,6.144
		L77.451,5.74l24.189,16.125l6.047,34.871c0,0-3.225,3.629-3.225,14.312c0,0-2.822-19.753-2.822-28.823
		C101.64,42.225,101.236,30.734,92.367,28.518z"/>
	<polygon fill="#282829" points="54.67,112.351 39.045,118.769 43.545,122.601 33.379,128.435 67.962,228.602 48.168,122.767 	"/>
	<polygon fill="#282829" points="81.671,112.351 97.296,118.769 92.796,122.601 102.962,128.435 68.38,228.602 88.173,122.767 	"/>
	<line fill="none" stroke="#282829" stroke-miterlimit="10" x1="67.879" y1="207.77" x2="67.879" y2="255.603"/>
	<rect x="50.712" y="148.601" fill="#FFFFFF" width="62.5" height="85"/>
	<path fill="#FED09E" d="M136.863,196.067v-24.01h-19.379v24.01H87.746c0,0-2.168,0.076-4.303-1.076
		c-0.287-0.158-0.574-0.33-0.857-0.535c0,0-1.426-0.729-1.871-0.918c-1.422-0.607-3.006-0.9-4.65-0.9h-2.252l-7.903-0.016H55.34
		c-1.55,0-2.806,1.254-2.806,2.803c0,1.551,1.256,2.807,2.806,2.807h10.569h2.602c0.564,0,1.018,0.453,1.018,1.014
		c0,0.564-0.453,1.018-1.018,1.018H45.435c-0.617,1.475-0.96,3.096-0.96,4.793c0,6.861,5.559,12.42,12.418,12.42h19.171
		c1.6,0,3.127-0.303,4.531-0.854c0.801-0.313,1.557-0.705,2.266-1.17h0.582l4.232-0.006h49.189v-19.379H136.863z"/>
	<path fill="#383839" d="M136.863,171.354h-19.379v24.713H87.746c0,0-2.168,0.076-4.303-1.076c-0.189-0.104-0.377-0.23-0.564-0.352
		v20.813h0.564l4.232-0.006h49.189v-19.379h-0.002V171.354z"/>
	<path fill="#FED09E" d="M0.001,196.771v-24.01H19.38v24.01h29.739c0,0,2.167,0.076,4.303-1.076c0.286-0.158,0.573-0.33,0.856-0.535
		c0,0,1.427-0.729,1.871-0.918c1.423-0.607,3.007-0.9,4.651-0.9h2.252l7.902-0.016h10.57c1.549,0,2.805,1.254,2.805,2.803
		c0,1.551-1.256,2.807-2.805,2.807h-10.57h-2.601c-0.564,0-1.018,0.453-1.018,1.014c0,0.564,0.453,1.018,1.018,1.018h23.076
		c0.617,1.475,0.961,3.096,0.961,4.793c0,6.861-5.559,12.42-12.418,12.42H60.801c-1.6,0-3.128-0.303-4.532-0.854
		c-0.8-0.313-1.556-0.705-2.265-1.17h-0.582l-4.233-0.006H0L0.001,196.771L0.001,196.771z"/>
	<path fill="#1A1A1A" d="M0.001,172.058H19.38v24.713h29.739c0,0,2.167,0.076,4.303-1.076c0.188-0.104,0.376-0.23,0.563-0.352
		v20.813h-0.563l-4.233-0.006H0v-19.379h0.001V172.058z"/>
	<rect y="166.055" fill="#1A1A1A" width="19.38" height="7.428"/>
	<path fill="#FED09E" d="M106.459,406.824c0,11.924-8.954,21.587-20,21.587l0,0c-11.046,0-20-9.663-20-21.587V273.365
		c0-11.921,8.954-21.586,20-21.586l0,0c11.046,0,20,9.665,20,21.586V406.824z"/>
	<path fill="#FED09E" d="M64.572,406.824c0,11.924-8.954,21.587-20,21.587l0,0c-11.046,0-20-9.663-20-21.587V273.365
		c0-11.921,8.954-21.586,20-21.586l0,0c11.046,0,20,9.665,20,21.586V406.824z"/>
	<path fill="#191819" d="M66.773,428.411c-0.523-13.346-11.502-24.002-24.975-24.002c-13.471,0-24.449,10.656-24.974,24.002H66.773z
		"/>
	<path fill="#191819" d="M115.687,428.411c-0.523-13.346-11.502-24.002-24.975-24.002c-13.471,0-24.45,10.656-24.974,24.002H115.687
		z"/>
	<circle fill="#FFFFFF" cx="85.455" cy="58.087" r="1.184"/>
	<circle fill="#FFFFFF" cx="55.505" cy="58.088" r="1.184"/>
</g>
</svg>
