<?xml version="1.0" encoding="utf-8"?>
<!-- Generator: Adobe Illustrator 16.0.0, SVG Export Plug-In . SVG Version: 6.00 Build 0)  -->
<!DOCTYPE svg PUBLIC "-//W3C//DTD SVG 1.0//EN" "http://www.w3.org/TR/2001/REC-SVG-20010904/DTD/svg10.dtd">
<svg version="1.0" id="Layer_1" xmlns="http://www.w3.org/2000/svg" xmlns:xlink="http://www.w3.org/1999/xlink" x="0px" y="0px"
	 width="100.718px" height="100.333px" viewBox="0 0 100.718 100.333" enable-background="new 0 0 100.718 100.333"
	 xml:space="preserve">
<g>
	<g>
		<circle fill="none" stroke="#E13726" stroke-width="8" stroke-miterlimit="10" cx="50" cy="50" r="45"/>
	</g>
	<g>
		<g>
			<g>
				<path fill="#E13726" d="M37.682,69.182c10-10,20-20,30-30c4.107-4.107-2.257-10.471-6.364-6.364c-10,10-20,20-30,30
					C27.211,66.925,33.575,73.289,37.682,69.182L37.682,69.182z"/>
			</g>
		</g>
		<g>
			<g>
				<path fill="#E13726" d="M67.682,62.818c-10-10-20-20-30-30c-4.107-4.107-10.471,2.257-6.364,6.364c10,10,20,20,30,30
					C65.425,73.289,71.789,66.925,67.682,62.818L67.682,62.818z"/>
			</g>
		</g>
	</g>
</g>
</svg>
