<?xml version="1.0" encoding="utf-8"?>
<!-- Generator: Adobe Illustrator 16.0.0, SVG Export Plug-In . SVG Version: 6.00 Build 0)  -->
<!DOCTYPE svg PUBLIC "-//W3C//DTD SVG 1.0//EN" "http://www.w3.org/TR/2001/REC-SVG-20010904/DTD/svg10.dtd">
<svg version="1.0" id="Layer_1" xmlns="http://www.w3.org/2000/svg" xmlns:xlink="http://www.w3.org/1999/xlink" x="0px" y="0px"
	 width="147.258px" height="86.966px" viewBox="0 0 147.258 86.966" enable-background="new 0 0 147.258 86.966"
	 xml:space="preserve">
<g>
	<g>
		<path fill="#4D4E4E" d="M141.322,83.792H5.936c-3.478,0-6.13-2.813-5.925-6.267L4.3,5.503C4.481,2.458,7.257,0,10.501,0h126.257
			c3.243,0,6.02,2.458,6.2,5.503l4.288,72.021C147.452,80.978,144.8,83.792,141.322,83.792z"/>
		<path fill="#F1F2F2" d="M134.996,78.74H12.261c-3.464,0-6.12-2.791-5.933-6.216l3.419-62.55c0.168-3.069,2.943-5.545,6.199-5.545
			h115.366c3.256,0,6.031,2.477,6.198,5.545l3.419,62.55C141.117,75.949,138.461,78.74,134.996,78.74z"/>
	</g>
	<g>
		<path fill="#3A3A3A" d="M143.609,83.806H6.284c-2.006,0-3.648,1.422-3.648,3.16h144.622
			C147.258,85.228,145.616,83.806,143.609,83.806z"/>
	</g>
</g>
</svg>
