<?xml version="1.0" encoding="utf-8"?>
<!-- Generator: Adobe Illustrator 16.0.0, SVG Export Plug-In . SVG Version: 6.00 Build 0)  -->
<!DOCTYPE svg PUBLIC "-//W3C//DTD SVG 1.0//EN" "http://www.w3.org/TR/2001/REC-SVG-20010904/DTD/svg10.dtd">
<svg version="1.0" id="Layer_1" xmlns="http://www.w3.org/2000/svg" xmlns:xlink="http://www.w3.org/1999/xlink" x="0px" y="0px"
	 width="131.149px" height="88.581px" viewBox="0 0 131.149 88.581" enable-background="new 0 0 131.149 88.581"
	 xml:space="preserve">
<g>
	<g>
		<path fill="#6C6C6C" d="M121.763,83.792H9.386c-2.887,0-5.359-2.456-5.522-5.5L0.01,6.27C-0.175,2.815,2.186,0,5.284,0h120.581
			c3.098,0,5.459,2.815,5.274,6.27l-3.854,72.021C127.122,81.335,124.65,83.792,121.763,83.792z"/>
		<path fill="#6C6C6C" d="M116.918,79.366H14.231c-2.898,0-5.37-2.475-5.52-5.543L5.639,11.274C5.47,7.847,7.834,5.055,10.919,5.055
			h109.31c3.086,0,5.449,2.792,5.281,6.219l-3.072,62.548C122.288,76.891,119.816,79.366,116.918,79.366z"/>
	</g>
	<g>
		<path fill="#3A3A3A" d="M124.801,83.806H5.851c-1.738,0-3.16,2.148-3.16,4.774h125.27
			C127.961,85.955,126.54,83.806,124.801,83.806z"/>
	</g>
</g>
</svg>
