<?xml version="1.0" encoding="utf-8"?>
<!-- Generator: Adobe Illustrator 16.0.0, SVG Export Plug-In . SVG Version: 6.00 Build 0)  -->
<!DOCTYPE svg PUBLIC "-//W3C//DTD SVG 1.0//EN" "http://www.w3.org/TR/2001/REC-SVG-20010904/DTD/svg10.dtd">
<svg version="1.0" id="Layer_1" xmlns="http://www.w3.org/2000/svg" xmlns:xlink="http://www.w3.org/1999/xlink" x="0px" y="0px"
	 width="136.866px" height="434.34px" viewBox="0 0 136.866 434.34" enable-background="new 0 0 136.866 434.34"
	 xml:space="preserve">
<g>
	<g>
		<path fill="#414042" d="M55.666,434.34c-0.524-13.346-11.503-24.002-24.975-24.002c-13.471,0-24.45,10.656-24.975,24.002H55.666z"
			/>
		<path fill="#414042" d="M130.048,434.34c-0.523-13.346-11.502-24.002-24.975-24.002c-13.471,0-24.449,10.656-24.974,24.002
			H130.048z"/>
		<path fill="#905322" d="M57.251,408.249c0,11.047-8.954,20-20,20l0,0c-11.046,0-20-8.953-20-20V264.583c0-11.045,8.954-20,20-20
			l0,0c11.046,0,20,8.955,20,20V408.249z"/>
		<path fill="#905322" d="M120.1,408.249c0,11.047-8.954,20-20,20l0,0c-11.046,0-20-8.953-20-20V264.583c0-11.045,8.954-20,20-20
			l0,0c11.046,0,20,8.955,20,20V408.249z"/>
	</g>
	<path fill="#78451C" d="M107.011,287.981H29.942c-7.01,0-12.691-5.683-12.691-12.691v-2.94c0-7.009,5.682-12.69,12.691-12.69
		h77.068c7.009,0,12.69,5.682,12.69,12.69v2.94C119.701,282.299,114.02,287.981,107.011,287.981z"/>
	<g>
		<path fill="#FFDAA2" d="M40.999,89.684c0,4.105-3.33,7.436-7.436,7.436l0,0c-4.107,0-7.439-3.33-7.439-7.436v-6.157
			c0-4.107,3.332-7.438,7.439-7.438l0,0c4.105,0,7.436,3.33,7.436,7.438V89.684z"/>
		<path fill="#E6BE91" d="M110.743,89.684c0,4.105-3.33,7.436-7.438,7.436l0,0c-4.107,0-7.439-3.33-7.439-7.436v-6.157
			c0-4.107,3.332-7.438,7.439-7.438l0,0c4.107,0,7.438,3.33,7.438,7.438V89.684z"/>
		<path fill="#FFDAA2" d="M68.435,25.698c-20.041,0-36.283,16.245-36.283,36.282v24.188c0,15.391,9.588,28.533,23.111,33.807v14.57
			c0,7.271,5.896,13.17,13.172,13.17c7.271,0,13.168-5.898,13.168-13.17v-14.57c13.523-5.271,23.111-18.414,23.111-33.807V61.98
			C104.714,41.943,88.472,25.698,68.435,25.698z"/>
		<path fill="#FED09E" d="M104.642,59.802c-0.012-0.219-0.031-0.436-0.049-0.654c-0.039-0.516-0.09-1.029-0.15-1.539
			c-0.027-0.229-0.057-0.457-0.088-0.684c-0.078-0.559-0.17-1.115-0.273-1.668c-0.027-0.145-0.047-0.289-0.078-0.434
			c-0.139-0.699-0.301-1.391-0.479-2.076c-0.033-0.127-0.074-0.254-0.107-0.379c-0.154-0.561-0.318-1.113-0.498-1.662
			c-0.061-0.184-0.123-0.361-0.184-0.543c-0.182-0.524-0.373-1.044-0.578-1.559c-0.057-0.141-0.109-0.282-0.168-0.422
			c-0.545-1.324-1.164-2.607-1.855-3.846c-0.051-0.092-0.105-0.184-0.156-0.274c-0.309-0.538-0.629-1.071-0.963-1.593
			c-0.059-0.091-0.117-0.182-0.174-0.273c-1.193-1.825-2.543-3.539-4.033-5.117c-0.033-0.034-0.064-0.068-0.098-0.102
			c-2.039-2.141-4.332-4.033-6.84-5.627c-0.012-0.008-0.025-0.016-0.037-0.023l-0.91-0.563c-5.414-3.215-11.734-5.067-18.488-5.067
			c-0.119,0-0.236,0.008-0.354,0.009v121.991c0.117,0.004,0.234,0.018,0.354,0.018c7.271,0,13.168-5.898,13.168-13.17v-14.57
			c13.523-5.271,23.111-18.414,23.111-33.807V61.98C104.714,61.248,104.687,60.523,104.642,59.802z"/>
		<path fill="#C5A22E" d="M104.681,83.265c0,19.883-16.118,36-36,36h-0.667c-19.882,0-36-16.117-36-36v-6.334
			c0-19.882,16.118-36,36-36h0.667c19.882,0,36,16.118,36,36V83.265z"/>
		<polygon fill="#C5A22E" points="48.081,35.765 35.581,43.765 35.581,67.265 100.581,62.265 99.201,44.337 		"/>
		<rect x="117.486" y="200.677" fill="#FED09E" width="19.379" height="20.189"/>
		<rect x="73.926" y="202.29" fill="#FED09E" width="62.939" height="19.379"/>
		<rect y="202.29" fill="#FED09E" width="62.939" height="19.379"/>
		<rect y="200.679" fill="#FFDAA2" width="19.361" height="20.188"/>
		<g>
			<path fill="#F1F2F2" d="M116.782,180.472c0.391,0,0.705,0.314,0.705,0.705v18.342v1.158h19.379V182.94l-0.002-2.418v-15.049
				c0-19.594-15.883-35.477-35.477-35.477H68.087v147.157h35.814c6.74,0,12.203-5.465,12.203-12.205v-55.93l-0.029-9.5l0.002-18.342
				C116.077,180.786,116.396,180.472,116.782,180.472z"/>
		</g>
		<g>
			<path fill="#FFFFFF" d="M136.864,180.522v-15.049c0-19.594-15.883-35.477-35.477-35.477H35.481
				c-19.594,0-35.477,15.883-35.477,35.477v16.66l-0.004,0.807v17.736h19.361v-1.158v-18.342c0-0.391,0.316-0.705,0.705-0.705
				c0.391,0,0.707,0.314,0.707,0.705v18.342l-0.014,9.5l-0.002,55.93c0,6.74,5.463,12.205,12.203,12.205h70.939
				c6.74,0,12.203-5.465,12.203-12.205v-55.93l-0.027-9.5v-18.342c0-0.391,0.318-0.705,0.705-0.705c0.391,0,0.705,0.314,0.705,0.705
				v18.342v1.158h19.379V182.94L136.864,180.522z"/>
		</g>
		<path fill="#F1F2F2" d="M136.864,165.474c0-19.594-15.883-35.477-35.477-35.477H68.081v147.157h35.82
			c6.74,0,12.203-5.465,12.203-12.205v-55.93l-0.027-9.5v-18.342c0-0.391,0.318-0.705,0.705-0.705c0.391,0,0.705,0.314,0.705,0.705
			v18.342v1.158h19.379V182.94l-0.002-2.418V165.474z"/>
		<g>
			<path fill="#C5A22E" d="M52.699,45.06c0,0,18.008,18.549,43.541,22.584c0,0,5.072,8.635,4.805,24.595l1.041-15.892
				c0,0,1.93-0.813,4.648,0.563c0,0,8.592-24.049,1.068-42.864c0,0-11.016-28.492-48.109-25.271c0,0-21.713,2.889-21.238,15.586
				c0,0-21.436,2.953-13.176,45.49l2.33,9.091l1.667-1.542c0,0,3.087,11.755,4.042,15.433c0,0-2.797-19.554,2.85-33.059
				C36.168,59.773,42.016,43.448,52.699,45.06z"/>
		</g>
		<path fill="#C5A22E" d="M104.791,30.133c0,0,0.04-15.799-7.558-22.621c0,0,4.031,4.341-17.832,4.187L104.791,30.133z"/>
		<path fill="#C5A22E" d="M99.317,28.255c0,0-0.353-15.795-8.117-22.426c0,0,4.138,4.24-17.723,4.628L99.317,28.255z"/>
	</g>
	<path fill="#FFFFFF" d="M115.985,181.176c0-0.045,0.018-0.084,0.026-0.127v-45.991c0-0.614,0.036-1.221,0.101-1.819
		c-4.51-2.076-9.525-3.242-14.816-3.242H35.391c-5.293,0-10.311,1.168-14.822,3.246c0.064,0.597,0.1,1.201,0.1,1.815v46.045
		c0.004,0.025,0.016,0.047,0.016,0.072v18.343l-0.014,9.498l-0.002,55.932c0,6.74,5.463,12.205,12.203,12.205h70.938
		c6.74,0,12.203-5.465,12.203-12.205v-55.932l-0.027-9.498V181.176z"/>
	<path fill="#F1F2F2" d="M116.012,181.049v-45.991c0-0.614,0.036-1.221,0.101-1.819c-4.51-2.076-9.525-3.242-14.816-3.242H68.08
		v147.157h35.729c6.74,0,12.204-5.465,12.204-12.205v-55.932l-0.028-9.498v-18.343C115.985,181.131,116.003,181.092,116.012,181.049
		z"/>
	<rect x="47.871" y="121.832" fill="#4D4E4E" width="41.85" height="8.596"/>
</g>
</svg>
