<?xml version="1.0" encoding="utf-8"?>
<!-- Generator: Adobe Illustrator 16.0.0, SVG Export Plug-In . SVG Version: 6.00 Build 0)  -->
<!DOCTYPE svg PUBLIC "-//W3C//DTD SVG 1.0//EN" "http://www.w3.org/TR/2001/REC-SVG-20010904/DTD/svg10.dtd">
<svg version="1.0" id="Layer_1" xmlns="http://www.w3.org/2000/svg" xmlns:xlink="http://www.w3.org/1999/xlink" x="0px" y="0px"
	 width="136.872px" height="420.945px" viewBox="0 0 136.872 420.945" enable-background="new 0 0 136.872 420.945"
	 xml:space="preserve">
<g>
	<g>
		<g>
			<g>
				<path fill="none" d="M20.78,183.925v-18.342c0-0.391-0.316-0.705-0.707-0.705c-0.389,0-0.705,0.314-0.705,0.705v18.342v22.03
					h1.396v43.401l0.002-55.932L20.78,183.925z"/>
				<g>
					<path fill="#FFFFFF" d="M116.417,254.423h0.356c0.01-0.024,0.017-0.048,0.027-0.072v-0.743
						C116.69,253.877,116.564,254.15,116.417,254.423z"/>
					<path fill="#FFFFFF" d="M118.184,206.811h18.028h0.66v-39.464l-0.002-2.418V149.88c0-19.593-15.883-35.476-35.477-35.476
						H35.487c-19.592,0-35.475,15.883-35.475,35.476v16.66l-0.004,0.807v38.608h19.359v-22.03v-18.342
						c0-0.391,0.316-0.705,0.705-0.705c0.391,0,0.707,0.314,0.707,0.705v18.342l-0.014,9.5l-0.002,55.932
						c0,6.738,5.463,12.203,12.203,12.203h70.939c6.74,0,12.203-5.465,12.203-12.203v-55.932l-0.027-9.5v-18.342
						c0-0.391,0.318-0.705,0.705-0.705c0.391,0,0.705,0.314,0.705,0.705v18.342v22.886h0.029H118.184z"/>
				</g>
			</g>
			<line fill="none" stroke="#000000" stroke-miterlimit="10" x1="12.68" y1="293.396" x2="12.68" y2="293.396"/>
			<g>
				<path fill="#BBA48A" d="M40.996,73.781c0,4.106-3.33,7.436-7.436,7.436l0,0c-4.107,0-7.439-3.33-7.439-7.436v-6.158
					c0-4.107,3.332-7.437,7.439-7.437l0,0c4.105,0,7.436,3.329,7.436,7.437V73.781z"/>
				<path fill="#A89074" d="M38.309,72.667c0,2.624-2.125,4.751-4.748,4.751l0,0c-2.625,0-4.754-2.127-4.754-4.751v-3.932
					c0-2.624,2.129-4.75,4.754-4.75l0,0c2.623,0,4.748,2.126,4.748,4.75V72.667z"/>
				<path fill="#BBA48A" d="M110.74,73.781c0,4.106-3.33,7.436-7.438,7.436l0,0c-4.107,0-7.439-3.33-7.439-7.436v-6.158
					c0-4.107,3.332-7.437,7.439-7.437l0,0c4.107,0,7.438,3.329,7.438,7.437V73.781z"/>
				<path fill="#A89074" d="M108.053,72.669c0,2.623-2.125,4.75-4.75,4.75l0,0c-2.623,0-4.752-2.127-4.752-4.75v-3.934
					c0-2.624,2.129-4.75,4.752-4.75l0,0c2.625,0,4.75,2.126,4.75,4.75V72.669z"/>
				<path fill="#BBA48A" d="M68.432,9.794c-20.041,0-36.283,16.246-36.283,36.283v24.189c0,15.39,9.588,28.534,23.111,33.807v14.57
					c0,7.271,5.896,13.17,13.172,13.17c7.271,0,13.168-5.898,13.168-13.17v-14.57c13.523-5.271,23.111-18.416,23.111-33.807V46.077
					C104.711,26.04,88.469,9.794,68.432,9.794z"/>
				<path fill="#B79F7E" d="M104.639,43.899c-0.012-0.219-0.031-0.436-0.049-0.654c-0.039-0.516-0.09-1.029-0.15-1.539
					c-0.027-0.228-0.057-0.457-0.088-0.684c-0.078-0.559-0.17-1.115-0.273-1.668c-0.027-0.145-0.047-0.289-0.078-0.434
					c-0.139-0.699-0.301-1.391-0.479-2.076c-0.033-0.127-0.074-0.254-0.107-0.379c-0.154-0.559-0.318-1.113-0.498-1.662
					c-0.061-0.183-0.123-0.361-0.184-0.542c-0.182-0.525-0.373-1.044-0.578-1.559c-0.057-0.141-0.109-0.283-0.168-0.422
					c-0.545-1.324-1.164-2.607-1.855-3.846c-0.051-0.092-0.105-0.184-0.156-0.274c-0.309-0.538-0.629-1.071-0.963-1.593
					c-0.059-0.091-0.117-0.181-0.174-0.273c-1.193-1.825-2.543-3.54-4.033-5.117c-0.033-0.035-0.064-0.069-0.098-0.102
					c-2.039-2.141-4.332-4.033-6.84-5.626c-0.012-0.008-0.025-0.016-0.037-0.024l-0.91-0.563
					c-5.414-3.215-11.734-5.067-18.488-5.067c-0.119,0-0.236,0.008-0.354,0.009v121.992c0.117,0.002,0.234,0.018,0.354,0.018
					c7.271,0,13.168-5.898,13.168-13.17v-14.57c13.523-5.271,23.111-18.416,23.111-33.807V46.077
					C104.711,45.345,104.684,44.621,104.639,43.899z"/>
			</g>
			<polygon fill="#681310" points="71.161,140.083 68.085,140.083 65.009,140.083 58.131,241.304 68.085,248.497 78.04,241.304 			
				"/>
			<path fill="#00557F" d="M74.58,196.06l-26.102-81.967H35.48c-5.254,0-10.236,1.152-14.723,3.201v47.902
				c0.002,0.027,0.016,0.049,0.016,0.076v18.342l-0.016,9.203v56.238c0.006,6.734,5.465,12.193,12.203,12.193H74.58V196.06z"/>
			<path fill="#004869" d="M62.25,196.06l26.102-81.967h13c5.254,0,10.236,1.152,14.721,3.201v47.902
				c-0.002,0.027-0.014,0.049-0.014,0.076v18.342l0.014,9.203v56.238c-0.004,6.734-5.465,12.193-12.201,12.193H62.25V196.06z"/>
			<circle fill="#5E5E5E" cx="67.58" cy="191.81" r="2.75"/>
			<circle fill="#5E5E5E" cx="67.58" cy="225.81" r="2.75"/>
			<circle fill="#5E5E5E" cx="67.58" cy="255.81" r="2.75"/>
			<polygon fill="#681310" points="71.187,140.425 64.984,140.425 61.382,131.819 74.788,131.819 			"/>
			<polygon fill="#F1F2F2" points="68.08,131.825 55.205,107.935 47.33,114.06 54.705,143.435 			"/>
			<polygon fill="#E6E7E8" points="68.102,131.825 80.977,107.935 88.852,114.06 81.477,143.435 			"/>
			<g>
				<path fill="none" d="M118.461,164.994c0-0.391-0.314-0.705-0.704-0.705c-0.388,0-0.706,0.314-0.706,0.705v18.342l0.028,9.5
					v12.695h1.382v-22.195V164.994z"/>
				<path fill="#0073A9" d="M116.11,193.114l-0.027-9.5v-18.342c0-0.391,0.318-0.705,0.705-0.705c0.391,0,0.705,0.314,0.705,0.705
					v18.342v22.195h19.379v-38.773l-0.002-2.418v-15.049c0-19.594-15.883-35.477-35.477-35.477H88.777l-23.803,88.383v65.584h51.136
					v-62.25V193.114z"/>
			</g>
			<polygon fill="#006393" points="92.184,143.31 98.434,150.06 64.975,202.407 88.759,114.093 101.934,140.56 			"/>
			<polygon fill="#4D4E4E" points="43.975,143.31 37.725,150.06 71.184,202.407 47.399,114.093 34.225,140.56 			"/>
			<g>
				<path fill="none" d="M20.758,193.114l0.014-9.5v-18.342c0-0.391-0.316-0.705-0.707-0.705c-0.389,0-0.705,0.314-0.705,0.705
					v18.342v22.195h1.398V193.114z"/>
				<path fill="#148ECE" d="M71.202,202.476l-23.803-88.383H35.479c-19.592,0-35.475,15.883-35.475,35.477v16.66L0,167.036v38.773
					h19.359v-22.195v-18.342c0-0.391,0.316-0.705,0.705-0.705c0.391,0,0.707,0.314,0.707,0.705v18.342l-0.014,9.5v12.695l0,0h0.014
					v62.25h50.431V202.476z M66.58,265.56c-1.518,0-2.75-1.232-2.75-2.75c0-1.52,1.232-2.75,2.75-2.75c1.52,0,2.75,1.23,2.75,2.75
					C69.33,264.327,68.1,265.56,66.58,265.56z M66.58,237.06c-1.518,0-2.75-1.232-2.75-2.75c0-1.52,1.232-2.75,2.75-2.75
					c1.52,0,2.75,1.23,2.75,2.75C69.33,235.827,68.1,237.06,66.58,237.06z M66.58,208.56c-1.518,0-2.75-1.232-2.75-2.75
					c0-1.52,1.232-2.75,2.75-2.75c1.52,0,2.75,1.23,2.75,2.75C69.33,207.327,68.1,208.56,66.58,208.56z"/>
				<circle fill="#0073A9" cx="66.58" cy="205.81" r="2.75"/>
				<circle fill="#0073A9" cx="66.58" cy="234.31" r="2.75"/>
				<circle fill="#4D4E4E" cx="66.58" cy="262.81" r="2.75"/>
				<rect x="20.758" y="205.81" fill="#FFFFFF" width="0.014" height="62.25"/>
				<rect x="20.758" y="205.81" fill="#FFFFFF" width="0" height="62.25"/>
				<polygon fill="#06709F" points="43.975,143.31 37.725,150.06 71.184,202.407 47.399,114.093 34.225,140.56 				"/>
				<g>
					<path fill="#B79F7E" d="M50.111,207.313c1.404,0.551,2.932,0.854,4.531,0.854h19.172c6.859,0,12.418-5.559,12.418-12.418
						c0-1.701-0.344-3.32-0.961-4.793H62.195c-0.564,0-1.018-0.455-1.018-1.018c0-0.561,0.453-1.018,1.018-1.018l2.602,0.004h10.57
						c1.549,0,2.805-1.258,2.805-2.807c0-1.551-1.256-2.807-2.805-2.807h-10.57l-7.902,0.02h-2.252c-1.645,0-3.229,0.289-4.65,0.9
						c-0.445,0.189-1.871,0.916-1.871,0.916c-0.283,0.205-0.57,0.379-0.857,0.533v20.461l0.582,0.004
						C48.555,206.608,49.311,207.001,50.111,207.313z"/>
					<path fill="#148ECE" d="M44,186.589H0v19.359h44.926l3.377,0.021v-20.461C46.168,186.663,44,186.589,44,186.589z"/>
				</g>
			</g>
		</g>
		<polygon fill="#3C2415" points="74.57,87.913 68.085,90.377 61.601,87.913 		"/>
		<circle fill="#3C2415" cx="53.453" cy="60.187" r="3.225"/>
		<circle fill="#3C2415" cx="83.42" cy="60.187" r="3.225"/>
		<polygon fill="#C4AE98" points="68.085,63.642 68.085,81.177 72.412,78.445 		"/>
		<g>
			<g>
				<path opacity="0.7" fill="#F1F2F2" d="M49.902,55.382c0,0-9.742-0.312-9.742,7.106c0,0-0.758,11.887,10.904,11.887
					c0,0,8.982,1.028,11.932-8.223c0,0,3.396-7.953-4.246-9.607C58.75,56.545,53.611,55.382,49.902,55.382z"/>
				<path opacity="0.7" fill="#F1F2F2" d="M86.928,55.382c0,0,9.742-0.312,9.742,7.106c0,0,0.758,11.887-10.904,11.887
					c0,0-8.982,1.028-11.934-8.223c0,0-3.395-7.953,4.248-9.607C78.08,56.545,83.219,55.382,86.928,55.382z"/>
				<path d="M105.859,58.522c-1.221-1.766-3.275-2.725-4.5-3.172l0.004-0.011c0,0-9.609-4.201-30.436,1.519
					c0,0-1.652,0.527-2.512,0.556c-0.861-0.028-2.514-0.556-2.514-0.556c-20.826-5.72-30.436-1.519-30.436-1.519l0.004,0.022
					c-1.229,0.452-3.26,1.411-4.471,3.161c0,0-0.605,2.318,0.135,2.923c0,0,3.221-2.314,5.096-1.772
					c0.406,0.134,1.547,0.677,1.986,2.704c0,0,0.803,7.305,4.021,10.792c0,0,2.883,2.747,8.313,2.747c0,0,10.123,0.604,12.869-6.904
					c0,0,1.846-4.926,2.648-6.133c0,0,1.072-1.911,2.348-1.911c1.273,0,2.346,1.911,2.346,1.911
					c0.803,1.207,2.646,6.133,2.646,6.133c2.748,7.508,12.871,6.904,12.871,6.904c5.43,0,8.313-2.747,8.313-2.747
					c3.219-3.487,4.021-10.792,4.021-10.792c0.428-1.978,1.523-2.542,1.957-2.693c1.863-0.609,5.156,1.761,5.156,1.761
					C106.465,60.84,105.859,58.522,105.859,58.522z M62.996,66.152c-2.949,9.251-11.932,8.223-11.932,8.223
					c-11.662,0-10.904-11.887-10.904-11.887c0-7.418,9.742-7.106,9.742-7.106c3.709,0,8.848,1.164,8.848,1.164
					C66.393,58.199,62.996,66.152,62.996,66.152z M85.766,74.375c0,0-8.982,1.028-11.934-8.223c0,0-3.395-7.953,4.248-9.607
					c0,0,5.139-1.164,8.848-1.164c0,0,9.742-0.312,9.742,7.106C96.67,62.488,97.428,74.375,85.766,74.375z"/>
			</g>
		</g>
		<path fill="#004869" d="M105.815,279.438H31.253c-5.665,0-10.257-4.592-10.257-10.257v-18.244c0-5.665,4.592-10.257,10.257-10.257
			h74.563c5.665,0,10.257,4.592,10.257,10.257v18.244C116.072,274.847,111.48,279.438,105.815,279.438z"/>
		<path fill="#00557F" d="M60.756,397.207c0,11.047-8.954,20-20,20l0,0c-11.046,0-20-8.953-20-20V253.541c0-11.045,8.954-20,20-20
			l0,0c11.046,0,20,8.955,20,20V397.207z"/>
		<path fill="#00557F" d="M116.355,397.207c0,11.047-8.954,20-20,20l0,0c-11.046,0-20-8.953-20-20V253.541c0-11.045,8.954-20,20-20
			l0,0c11.046,0,20,8.955,20,20V397.207z"/>
		<path fill="#191819" d="M66.718,419.191c-0.523-13.346-11.502-24.002-24.975-24.002c-13.471,0-24.449,10.656-24.974,24.002H66.718
			z"/>
		<path fill="#191819" d="M122.528,419.191c-0.523-13.346-11.502-24.002-24.975-24.002c-13.471,0-24.449,10.656-24.974,24.002
			H122.528z"/>
		<g display="none">
			<circle display="inline" fill="#3C2415" cx="67.847" cy="45.271" r="42.747"/>
			<g display="inline">
				<circle fill="#3C2415" cx="28.316" cy="59.339" r="2.249"/>
				<g>
					<circle fill="#3C2415" cx="26.928" cy="57.09" r="2.249"/>
					<circle fill="#3C2415" cx="26.62" cy="53.938" r="2.249"/>
					<circle fill="#3C2415" cx="26.067" cy="50.696" r="2.249"/>
					<circle fill="#3C2415" cx="26.327" cy="48.447" r="2.249"/>
					<circle fill="#3C2415" cx="26.067" cy="45.316" r="2.249"/>
					<circle fill="#3C2415" cx="26.067" cy="42.074" r="2.249"/>
					<circle fill="#3C2415" cx="26.62" cy="38.465" r="2.249"/>
					<circle fill="#3C2415" cx="26.928" cy="35.193" r="2.249"/>
					<circle fill="#3C2415" cx="27.966" cy="30.967" r="2.249"/>
					<circle fill="#3C2415" cx="29.468" cy="27.234" r="2.249"/>
					<circle fill="#3C2415" cx="31.118" cy="24.14" r="2.249"/>
					<circle fill="#3C2415" cx="33.367" cy="20.993" r="2.249"/>
					<circle fill="#3C2415" cx="35.424" cy="18.093" r="2.249"/>
					<circle fill="#3C2415" cx="37.864" cy="15.337" r="2.249"/>
					<circle fill="#3C2415" cx="40.113" cy="12.555" r="2.249"/>
					<circle fill="#3C2415" cx="42.362" cy="10.307" r="2.249"/>
					<circle fill="#3C2415" cx="45.15" cy="8.352" r="2.249"/>
					<circle fill="#3C2415" cx="48.56" cy="6.826" r="2.249"/>
					<circle fill="#3C2415" cx="52.046" cy="5.808" r="2.249"/>
					<circle fill="#3C2415" cx="55.271" cy="4.774" r="2.249"/>
					<circle fill="#3C2415" cx="58.496" cy="3.069" r="2.249"/>
					<circle fill="#3C2415" cx="61.816" cy="3.069" r="2.249"/>
					<circle fill="#3C2415" cx="64.512" cy="2.525" r="2.249"/>
					<circle fill="#3C2415" cx="65.613" cy="3.069" r="2.249"/>
					<g>
						<circle fill="#3C2415" cx="108.021" cy="59.064" r="2.249"/>
						<circle fill="#3C2415" cx="109.411" cy="56.814" r="2.249"/>
						<circle fill="#3C2415" cx="109.719" cy="53.664" r="2.249"/>
						<circle fill="#3C2415" cx="110.271" cy="50.422" r="2.249"/>
						<circle fill="#3C2415" cx="110.011" cy="48.172" r="2.249"/>
						<circle fill="#3C2415" cx="110.271" cy="45.041" r="2.249"/>
						<circle fill="#3C2415" cx="110.271" cy="41.799" r="2.249"/>
						<circle fill="#3C2415" cx="109.719" cy="38.189" r="2.249"/>
						<circle fill="#3C2415" cx="109.411" cy="34.918" r="2.249"/>
						<circle fill="#3C2415" cx="108.373" cy="30.692" r="2.249"/>
						<circle fill="#3C2415" cx="106.871" cy="26.959" r="2.249"/>
						<circle fill="#3C2415" cx="105.221" cy="23.865" r="2.249"/>
						<circle fill="#3C2415" cx="102.972" cy="20.719" r="2.249"/>
						<circle fill="#3C2415" cx="100.914" cy="17.818" r="2.249"/>
						<circle fill="#3C2415" cx="98.474" cy="15.063" r="2.249"/>
						<circle fill="#3C2415" cx="96.225" cy="12.28" r="2.249"/>
						<circle fill="#3C2415" cx="93.976" cy="10.031" r="2.249"/>
						<circle fill="#3C2415" cx="91.188" cy="8.077" r="2.249"/>
						<circle fill="#3C2415" cx="87.779" cy="6.551" r="2.249"/>
						<circle fill="#3C2415" cx="84.292" cy="5.533" r="2.249"/>
						<circle fill="#3C2415" cx="81.068" cy="4.5" r="2.249"/>
						<circle fill="#3C2415" cx="77.843" cy="2.794" r="2.249"/>
						<circle fill="#3C2415" cx="74.522" cy="2.794" r="2.249"/>
						<circle fill="#3C2415" cx="71.827" cy="2.25" r="2.249"/>
						<circle fill="#3C2415" cx="69.13" cy="2.794" r="2.249"/>
					</g>
				</g>
			</g>
			<path display="inline" fill="#3C2415" d="M32.757,59.064l1.989,3.947l6.066-33.529c0,0,28.267,10.017,48.163,0l10.919,24.456
				l3.043,5.126l2.283-19.514L94.38,14.804L77.843,6.551L55.271,8.352L39.356,18.469l-9.142,12.498v15.797L32.757,59.064z"/>
			<ellipse display="inline" fill="#3C2415" cx="35.616" cy="46.313" rx="3.257" ry="3.521"/>
			<ellipse display="inline" fill="#3C2415" cx="36.856" cy="46.588" rx="3.257" ry="3.52"/>
			<ellipse display="inline" fill="#3C2415" cx="36.856" cy="42.074" rx="3.257" ry="3.521"/>
			<ellipse display="inline" fill="#3C2415" cx="37.673" cy="42.074" rx="3.258" ry="3.521"/>
			<ellipse display="inline" fill="#3C2415" cx="38.715" cy="36.216" rx="3.258" ry="3.521"/>
			<ellipse display="inline" fill="#3C2415" cx="40.93" cy="31.398" rx="3.257" ry="3.52"/>
			<ellipse display="inline" fill="#3C2415" cx="35.52" cy="52.071" rx="3.354" ry="3.624"/>
			<ellipse display="inline" fill="#3C2415" cx="33.599" cy="54.842" rx="3.354" ry="3.623"/>
			<ellipse display="inline" fill="#3C2415" cx="96.362" cy="46.9" rx="3.258" ry="3.521"/>
			<ellipse display="inline" fill="#3C2415" cx="94.38" cy="42.793" rx="3.257" ry="3.52"/>
			<ellipse display="inline" fill="#3C2415" cx="93.104" cy="37.093" rx="3.258" ry="3.521"/>
			<ellipse display="inline" fill="#3C2415" cx="90.889" cy="32.275" rx="3.257" ry="3.52"/>
			<ellipse display="inline" fill="#3C2415" cx="98.666" cy="51.414" rx="3.353" ry="3.625"/>
			<ellipse display="inline" fill="#3C2415" cx="101.575" cy="54.842" rx="3.353" ry="3.623"/>
		</g>
		<path d="M69.281,6.886c-20.356,0-36.858,16.501-36.858,36.859v29.088c0,9.674,3.746,18.461,9.847,25.035c0,0.012,0,0.024,0,0.035
			c0.141,0.15,0.287,0.292,0.429,0.439c0.158,0.165,0.317,0.329,0.479,0.49c0.572,0.573,1.155,1.136,1.763,1.672
			c0.039,0.033,0.077,0.062,0.115,0.094c0.593,0.52,1.211,1.013,1.837,1.494c0.152,0.117,0.305,0.234,0.461,0.348
			c1.36,1.011,2.791,1.928,4.287,2.745c0.129,0.07,0.259,0.141,0.387,0.21c1.546,0.821,3.156,1.534,4.823,2.132
			c0.055,0.019,0.108,0.046,0.164,0.064v-0.008c3.838,1.358,7.964,2.107,12.268,2.107c4.316,0,8.456-0.75,12.305-2.114v0.001
			c0.01-0.005,0.021-0.009,0.03-0.012c0.864-0.307,1.71-0.645,2.538-1.012c0.056-0.024,0.109-0.05,0.165-0.075
			c1.637-0.733,3.211-1.583,4.713-2.537c0.095-0.059,0.186-0.119,0.276-0.179c1.452-0.94,2.83-1.982,4.131-3.112
			c0.106-0.093,0.212-0.184,0.317-0.278c0.583-0.518,1.155-1.046,1.701-1.6c0.003-0.006,0.003-0.011,0.003-0.017
			c6.597-6.657,10.678-15.811,10.678-25.925V43.745C106.139,23.387,89.635,6.886,69.281,6.886z M69.028,94.409
			c-6.646,0-12.035-3.037-12.035-6.783s5.389-6.783,12.035-6.783c6.646,0,12.035,3.037,12.035,6.783S75.674,94.409,69.028,94.409z
			 M103.147,66.536c0,8.837-3.396,16.872-8.944,22.897c-2.794-6.798-9.473-11.588-17.276-11.588H60.881
			c-7.573,0-14.074,4.513-17.011,10.99c-5.23-5.957-8.417-13.749-8.417-22.299V43.97c0-18.694,15.152-33.85,33.849-33.85
			c18.693,0,33.846,15.156,33.846,33.85V66.536z"/>
	</g>
	<g>
		<path fill="#0073A9" d="M92.872,187.077h44v19.359H91.946l-3.377,0.021v-20.461C90.704,187.151,92.872,187.077,92.872,187.077z"/>
		<path fill="#BBA48A" d="M86.761,207.802c-1.404,0.551-2.932,0.854-4.531,0.854H63.058c-6.859,0-12.418-5.559-12.418-12.418
			c0-1.701,0.344-3.32,0.961-4.793h23.076c0.564,0,1.018-0.455,1.018-1.018c0-0.561-0.453-1.018-1.018-1.018l-2.602,0.004h-10.57
			c-1.549,0-2.805-1.258-2.805-2.807c0-1.551,1.256-2.807,2.805-2.807h10.57l7.902,0.02h2.252c1.645,0,3.229,0.289,4.65,0.9
			c0.445,0.189,1.871,0.916,1.871,0.916c0.283,0.205,0.57,0.379,0.857,0.533v20.461l-0.582,0.004
			C88.317,207.097,87.562,207.489,86.761,207.802z"/>
	</g>
	<circle fill="#FFFFFF" cx="51.949" cy="60.566" r="1.184"/>
	<circle fill="#FFFFFF" cx="81.917" cy="60.566" r="1.184"/>
</g>
</svg>
