<?xml version="1.0" encoding="utf-8"?>
<!-- Generator: Adobe Illustrator 16.0.0, SVG Export Plug-In . SVG Version: 6.00 Build 0)  -->
<!DOCTYPE svg PUBLIC "-//W3C//DTD SVG 1.0//EN" "http://www.w3.org/TR/2001/REC-SVG-20010904/DTD/svg10.dtd">
<svg version="1.0" id="Layer_1" xmlns="http://www.w3.org/2000/svg" xmlns:xlink="http://www.w3.org/1999/xlink" x="0px" y="0px"
	 width="136.866px" height="422.078px" viewBox="0 0 136.866 422.078" enable-background="new 0 0 136.866 422.078"
	 xml:space="preserve">
<path fill="#00557F" d="M57.251,402.078c0,11.047-8.954,20-20,20l0,0c-11.046,0-20-8.954-20-20V258.412c0-11.045,8.954-20,20-20l0,0
	c11.046,0,20,8.955,20,20V402.078z"/>
<path fill="#00557F" d="M120.099,402.078c0,11.047-8.953,20-20,20l0,0c-11.045,0-20-8.954-20-20V258.412c0-11.045,8.955-20,20-20
	l0,0c11.047,0,20,8.955,20,20V402.078z"/>
<g>
	<g>
		<path fill="#FFDAA2" d="M40.999,83.512c0,4.105-3.33,7.436-7.436,7.436l0,0c-4.107,0-7.439-3.33-7.439-7.436v-6.157
			c0-4.107,3.332-7.438,7.439-7.438l0,0c4.105,0,7.436,3.33,7.436,7.438V83.512z"/>
		<path fill="#E6BE91" d="M110.743,83.512c0,4.105-3.33,7.436-7.438,7.436l0,0c-4.107,0-7.439-3.33-7.439-7.436v-6.157
			c0-4.107,3.332-7.438,7.439-7.438l0,0c4.107,0,7.438,3.33,7.438,7.438V83.512z"/>
		<path fill="#FFDAA2" d="M68.435,19.526c-20.041,0-36.283,16.245-36.283,36.282v24.188c0,15.391,9.588,28.533,23.111,33.807v14.57
			c0,7.271,5.896,13.17,13.172,13.17c7.271,0,13.168-5.898,13.168-13.17v-14.57c13.523-5.271,23.111-18.414,23.111-33.807V55.808
			C104.714,35.771,88.472,19.526,68.435,19.526z"/>
		<path fill="#FED09E" d="M104.642,53.63c-0.012-0.219-0.031-0.436-0.049-0.654c-0.039-0.516-0.09-1.029-0.15-1.539
			c-0.027-0.229-0.057-0.457-0.088-0.684c-0.078-0.559-0.17-1.115-0.273-1.668c-0.027-0.145-0.047-0.289-0.078-0.434
			c-0.139-0.699-0.301-1.391-0.479-2.076c-0.033-0.127-0.074-0.254-0.107-0.379c-0.154-0.561-0.318-1.113-0.498-1.662
			c-0.061-0.184-0.123-0.361-0.184-0.543c-0.182-0.524-0.373-1.044-0.578-1.559c-0.057-0.141-0.109-0.282-0.168-0.422
			c-0.545-1.324-1.164-2.607-1.855-3.846c-0.051-0.092-0.105-0.184-0.156-0.274c-0.309-0.538-0.629-1.071-0.963-1.593
			c-0.059-0.091-0.117-0.182-0.174-0.273c-1.193-1.825-2.543-3.539-4.033-5.117c-0.033-0.034-0.064-0.068-0.098-0.102
			c-2.039-2.141-4.332-4.033-6.84-5.627c-0.012-0.008-0.025-0.016-0.037-0.023l-0.91-0.563c-5.414-3.215-11.734-5.067-18.488-5.067
			c-0.119,0-0.236,0.008-0.354,0.009v121.991c0.117,0.004,0.234,0.018,0.354,0.018c7.271,0,13.168-5.898,13.168-13.17v-14.57
			c13.523-5.271,23.111-18.414,23.111-33.807V55.808C104.714,55.076,104.687,54.351,104.642,53.63z"/>
		<path d="M104.681,77.093c0,19.883-16.118,36-36,36h-0.667c-19.882,0-36-16.117-36-36v-6.334c0-19.882,16.118-36,36-36h0.667
			c19.882,0,36,16.118,36,36V77.093z"/>
		<polygon points="49.014,29.593 36.514,37.593 36.514,61.093 101.514,56.093 100.134,38.166 		"/>
		<path fill="#BBDBA2" d="M89.181,120.759c0,1.657-1.343,3-3,3H50.014c-1.657,0-3-1.343-3-3v-2.666c0-1.656,1.343-3,3-3h36.167
			c1.657,0,3,1.344,3,3V120.759z"/>
		<rect x="117.486" y="194.504" fill="#FED09E" width="19.379" height="20.189"/>
		<rect x="73.926" y="196.118" fill="#FED09E" width="62.939" height="19.379"/>
		<rect y="196.118" fill="#FED09E" width="62.939" height="19.379"/>
		<rect y="194.506" fill="#FFDAA2" width="19.361" height="20.188"/>
		<g>
			<path fill="#F1F2F2" d="M116.782,174.299c0.391,0,0.705,0.314,0.705,0.705v18.342v1.158h19.379v-17.736l-0.002-2.418v-15.049
				c0-19.594-15.883-35.477-35.477-35.477H68.087v147.156h35.814c6.74,0,12.203-5.465,12.203-12.205v-55.93l-0.029-9.5l0.002-18.342
				C116.077,174.614,116.396,174.299,116.782,174.299z"/>
		</g>
		<g>
			<path fill="#BBDBA2" d="M136.864,174.35v-15.049c0-19.594-15.883-35.477-35.477-35.477H35.481
				c-19.594,0-35.477,15.883-35.477,35.477v16.66l-0.004,0.807v17.736h19.361v-1.158v-18.342c0-0.391,0.316-0.705,0.705-0.705
				c0.391,0,0.707,0.314,0.707,0.705v18.342l-0.014,9.5l-0.002,55.93c0,6.74,5.463,12.205,12.203,12.205h70.939
				c6.74,0,12.203-5.465,12.203-12.205v-55.93l-0.027-9.5v-18.342c0-0.391,0.318-0.705,0.705-0.705c0.391,0,0.705,0.314,0.705,0.705
				v18.342v1.158h19.379v-17.736L136.864,174.35z"/>
		</g>
		<path fill="#ACD38D" d="M86.181,115.093h-18.1v8.666h18.1c1.657,0,3-1.343,3-3v-2.666
			C89.181,116.437,87.838,115.093,86.181,115.093z"/>
		<path fill="#ACD38D" d="M136.864,159.301c0-19.594-15.883-35.477-35.477-35.477H68.081v147.156h35.82
			c6.74,0,12.203-5.465,12.203-12.205v-55.93l-0.027-9.5v-18.342c0-0.391,0.318-0.705,0.705-0.705c0.391,0,0.705,0.314,0.705,0.705
			v18.342v1.158h19.379v-17.736l-0.002-2.418V159.301z"/>
		<g>
			<path d="M52.699,38.888c0,0,18.008,18.549,43.541,22.584c0,0,5.072,8.635,4.805,24.595l1.041-15.892c0,0,1.93-0.813,4.648,0.563
				c0,0,8.592-24.049,1.068-42.864c0,0-11.016-28.492-48.109-25.271c0,0-21.713,2.889-21.238,15.586c0,0-21.436,2.953-13.176,45.49
				l2.33,9.091l1.667-1.542c0,0,3.087,11.755,4.042,15.433c0,0-2.797-19.554,2.85-33.059C36.168,53.601,42.016,37.276,52.699,38.888
				z"/>
		</g>
	</g>
	<path fill="#BBDBA2" d="M115.985,175.003c0-0.045,0.018-0.084,0.026-0.127v-45.99c0-0.614,0.036-1.221,0.101-1.819
		c-4.51-2.076-9.525-3.242-14.816-3.242H35.391c-5.293,0-10.311,1.168-14.822,3.246c0.064,0.597,0.1,1.201,0.1,1.815v46.045
		c0.004,0.025,0.016,0.047,0.016,0.072v18.343l-0.014,9.498l-0.002,55.932c0,6.74,5.463,12.205,12.203,12.205h70.938
		c6.74,0,12.203-5.465,12.203-12.205v-55.932l-0.027-9.498V175.003z"/>
	<path fill="#ACD38D" d="M116.012,174.876v-45.99c0-0.614,0.036-1.221,0.101-1.819c-4.51-2.076-9.525-3.242-14.816-3.242H68.08
		v147.156h35.729c6.74,0,12.204-5.465,12.204-12.205v-55.932l-0.028-9.498v-18.343C115.985,174.958,116.003,174.919,116.012,174.876
		z"/>
</g>
</svg>
